<svg width="14" height="14" viewBox="0 0 14 14" fill="none" xmlns="http://www.w3.org/2000/svg">
<path d="M13.45 4.5294C13.0986 3.69769 12.5892 2.94206 11.95 2.30439C11.3123 1.66519 10.5567 1.15578 9.725 0.804395C8.86094 0.43877 7.94531 0.254395 7 0.254395C6.05469 0.254395 5.13906 0.43877 4.275 0.804395C3.4433 1.15578 2.68767 1.66519 2.05 2.30439C1.41079 2.94206 0.901382 3.69769 0.55 4.5294C0.184375 5.39346 0 6.30908 0 7.2544C0 9.32783 0.910937 11.281 2.49844 12.6153L2.525 12.6372C2.61563 12.7122 2.72969 12.7544 2.84687 12.7544H11.1547C11.2719 12.7544 11.3859 12.7122 11.4766 12.6372L11.5031 12.6153C13.0891 11.281 14 9.32783 14 7.2544C14 6.30908 13.8141 5.39346 13.45 4.5294ZM10.8969 11.5669H3.10313C2.49937 11.0225 2.01682 10.3573 1.68681 9.61432C1.35679 8.87137 1.18667 8.06734 1.1875 7.2544C1.1875 5.70127 1.79219 4.24189 2.89062 3.14502C3.98906 2.04658 5.44844 1.44189 7 1.44189C8.55313 1.44189 10.0125 2.04658 11.1094 3.14502C12.2078 4.24346 12.8125 5.70283 12.8125 7.2544C12.8125 8.9044 12.1172 10.4653 10.8969 11.5669ZM8.74219 5.09033C8.71869 5.06707 8.68697 5.05402 8.65391 5.05402C8.62084 5.05402 8.58912 5.06707 8.56563 5.09033L7.24531 6.41065C6.95312 6.33252 6.62969 6.40752 6.4 6.63721C6.31865 6.71841 6.2541 6.81485 6.21007 6.92103C6.16603 7.0272 6.14336 7.14101 6.14336 7.25596C6.14336 7.3709 6.16603 7.48472 6.21007 7.59089C6.2541 7.69706 6.31865 7.79351 6.4 7.87471C6.4812 7.95606 6.57765 8.0206 6.68382 8.06464C6.78999 8.10868 6.90381 8.13135 7.01875 8.13135C7.13369 8.13135 7.24751 8.10868 7.35368 8.06464C7.45985 8.0206 7.5563 7.95606 7.6375 7.87471C7.74632 7.76621 7.82458 7.63092 7.86436 7.48249C7.90414 7.33407 7.90404 7.17777 7.86406 7.0294L9.18437 5.70908C9.23281 5.66065 9.23281 5.58096 9.18437 5.53252L8.74219 5.09033ZM6.65625 3.5044H7.34375C7.4125 3.5044 7.46875 3.44814 7.46875 3.3794V2.12939C7.46875 2.06064 7.4125 2.00439 7.34375 2.00439H6.65625C6.5875 2.00439 6.53125 2.06064 6.53125 2.12939V3.3794C6.53125 3.44814 6.5875 3.5044 6.65625 3.5044ZM10.7188 6.91065V7.59815C10.7188 7.6669 10.775 7.72315 10.8438 7.72315H12.0938C12.1625 7.72315 12.2188 7.6669 12.2188 7.59815V6.91065C12.2188 6.8419 12.1625 6.78565 12.0938 6.78565H10.8438C10.775 6.78565 10.7188 6.8419 10.7188 6.91065ZM10.9172 3.82939L10.4312 3.34346C10.4078 3.32019 10.376 3.30715 10.343 3.30715C10.3099 3.30715 10.2782 3.32019 10.2547 3.34346L9.37031 4.22783C9.34705 4.25133 9.334 4.28305 9.334 4.31611C9.334 4.34918 9.34705 4.3809 9.37031 4.4044L9.85625 4.89033C9.90469 4.93877 9.98438 4.93877 10.0328 4.89033L10.9172 4.00596C10.9656 3.95752 10.9656 3.87783 10.9172 3.82939ZM3.75156 3.34346C3.72807 3.32019 3.69634 3.30715 3.66328 3.30715C3.63022 3.30715 3.59849 3.32019 3.575 3.34346L3.08906 3.82939C3.0658 3.85289 3.05275 3.88461 3.05275 3.91768C3.05275 3.95074 3.0658 3.98246 3.08906 4.00596L3.97344 4.89033C4.02187 4.93877 4.10156 4.93877 4.15 4.89033L4.63594 4.4044C4.68438 4.35596 4.68438 4.27627 4.63594 4.22783L3.75156 3.34346ZM3.09375 6.78565H1.84375C1.775 6.78565 1.71875 6.8419 1.71875 6.91065V7.59815C1.71875 7.6669 1.775 7.72315 1.84375 7.72315H3.09375C3.1625 7.72315 3.21875 7.6669 3.21875 7.59815V6.91065C3.21875 6.8419 3.1625 6.78565 3.09375 6.78565Z" fill="#000000"/>
</svg>
